<svg width="52" height="19" viewBox="0 0 52 19" fill="none" xmlns="http://www.w3.org/2000/svg">
<rect width="52" height="19" rx="9.5" fill="#333333"/>
<path d="M8.70739 14V12.6705L11.8139 9.79403C12.0781 9.53835 12.2997 9.30824 12.4787 9.10369C12.6605 8.89915 12.7983 8.69886 12.892 8.50284C12.9858 8.30398 13.0327 8.08949 13.0327 7.85938C13.0327 7.60369 12.9744 7.38352 12.858 7.19886C12.7415 7.01136 12.5824 6.8679 12.3807 6.76847C12.179 6.66619 11.9503 6.61506 11.6946 6.61506C11.4276 6.61506 11.1946 6.66903 10.9957 6.77699C10.7969 6.88494 10.6435 7.03977 10.5355 7.24148C10.4276 7.44318 10.3736 7.68324 10.3736 7.96165H8.62216C8.62216 7.39062 8.75142 6.89489 9.00994 6.47443C9.26847 6.05398 9.63068 5.72869 10.0966 5.49858C10.5625 5.26847 11.0994 5.15341 11.7074 5.15341C12.3324 5.15341 12.8764 5.2642 13.3395 5.4858C13.8054 5.70455 14.1676 6.00852 14.4261 6.39773C14.6847 6.78693 14.8139 7.23295 14.8139 7.7358C14.8139 8.06534 14.7486 8.39062 14.6179 8.71165C14.4901 9.03267 14.2614 9.3892 13.9318 9.78125C13.6023 10.1705 13.1378 10.6378 12.5384 11.1832L11.2642 12.4318V12.4915H14.929V14H8.70739ZM21.4723 14.1065C20.9751 14.1065 20.5249 13.9787 20.1214 13.723C19.7209 13.4645 19.4027 13.0852 19.1669 12.5852C18.9339 12.0824 18.8175 11.4659 18.8175 10.7358C18.8175 9.9858 18.9382 9.36222 19.1797 8.86506C19.4212 8.36506 19.7422 7.99148 20.1428 7.74432C20.5462 7.49432 20.9879 7.36932 21.468 7.36932C21.8345 7.36932 22.1399 7.43182 22.3842 7.55682C22.6314 7.67898 22.8303 7.83239 22.9808 8.01705C23.1342 8.19886 23.2507 8.37784 23.3303 8.55398H23.3857V5.27273H25.1967V14H23.407V12.9517H23.3303C23.245 13.1335 23.1243 13.3139 22.968 13.4929C22.8146 13.669 22.6143 13.8153 22.3672 13.9318C22.1229 14.0483 21.8246 14.1065 21.4723 14.1065ZM22.0476 12.6619C22.3402 12.6619 22.5874 12.5824 22.7891 12.4233C22.9936 12.2614 23.1499 12.0355 23.2578 11.7457C23.3686 11.456 23.424 11.1165 23.424 10.7273C23.424 10.3381 23.37 10 23.2621 9.71307C23.1541 9.42614 22.9979 9.20455 22.7933 9.0483C22.5888 8.89205 22.3402 8.81392 22.0476 8.81392C21.7493 8.81392 21.4979 8.89489 21.2933 9.05682C21.0888 9.21875 20.9339 9.44318 20.8288 9.73011C20.7237 10.017 20.6712 10.3494 20.6712 10.7273C20.6712 11.108 20.7237 11.4446 20.8288 11.7372C20.9368 12.027 21.0916 12.2543 21.2933 12.419C21.4979 12.581 21.7493 12.6619 22.0476 12.6619ZM29.6722 14.1278C28.9989 14.1278 28.4194 13.9915 27.9336 13.7188C27.4506 13.4432 27.0785 13.054 26.8171 12.5511C26.5558 12.0455 26.4251 11.4474 26.4251 10.7571C26.4251 10.0838 26.5558 9.4929 26.8171 8.98438C27.0785 8.47585 27.4464 8.07955 27.9208 7.79545C28.3981 7.51136 28.9577 7.36932 29.5998 7.36932C30.0316 7.36932 30.4336 7.43892 30.8058 7.57812C31.1808 7.71449 31.5075 7.92045 31.7859 8.19602C32.0671 8.47159 32.2859 8.81818 32.4421 9.2358C32.5984 9.65057 32.6765 10.1364 32.6765 10.6932V11.1918H27.1495V10.0668H30.9677C30.9677 9.8054 30.9109 9.57386 30.7972 9.37216C30.6836 9.17045 30.5259 9.01278 30.3242 8.89915C30.1254 8.78267 29.8938 8.72443 29.6296 8.72443C29.354 8.72443 29.1097 8.78835 28.8967 8.91619C28.6864 9.04119 28.5217 9.21023 28.4023 9.4233C28.283 9.63352 28.2219 9.8679 28.2191 10.1264V11.196C28.2191 11.5199 28.2788 11.7997 28.3981 12.0355C28.5202 12.2713 28.6921 12.4531 28.9137 12.581C29.1353 12.7088 29.3981 12.7727 29.7021 12.7727C29.9038 12.7727 30.0884 12.7443 30.256 12.6875C30.4237 12.6307 30.5671 12.5455 30.6864 12.4318C30.8058 12.3182 30.8967 12.179 30.9592 12.0142L32.6381 12.125C32.5529 12.5284 32.3782 12.8807 32.114 13.1818C31.8526 13.4801 31.5146 13.7131 31.0998 13.8807C30.6879 14.0455 30.212 14.1278 29.6722 14.1278ZM39.8089 14.1193C39.2067 14.1193 38.6697 14.0085 38.1982 13.7869C37.7294 13.5653 37.3572 13.2599 37.0817 12.8707C36.8061 12.4815 36.6626 12.0355 36.6513 11.5327H38.4411C38.4609 11.8707 38.603 12.1449 38.8672 12.3551C39.1314 12.5653 39.4453 12.6705 39.8089 12.6705C40.0987 12.6705 40.3544 12.6065 40.576 12.4787C40.8004 12.348 40.9751 12.1676 41.1001 11.9375C41.228 11.7045 41.2919 11.4375 41.2919 11.1364C41.2919 10.8295 41.2266 10.5597 41.0959 10.3267C40.968 10.0937 40.7905 9.91193 40.5632 9.78125C40.3359 9.65057 40.076 9.58381 39.7834 9.58097C39.5277 9.58097 39.2791 9.63352 39.0376 9.73864C38.799 9.84375 38.6129 9.98722 38.4794 10.169L36.8388 9.875L37.2521 5.27273H42.5874V6.78125H38.7734L38.5476 8.96733H38.5987C38.7521 8.75142 38.9837 8.57244 39.2933 8.4304C39.603 8.28835 39.9496 8.21733 40.3331 8.21733C40.8587 8.21733 41.3274 8.34091 41.7393 8.58807C42.1513 8.83523 42.4766 9.17472 42.7152 9.60653C42.9538 10.0355 43.0717 10.5298 43.0689 11.0895C43.0717 11.6776 42.9354 12.2003 42.6598 12.6577C42.3871 13.1122 42.005 13.4702 41.5135 13.7315C41.0249 13.9901 40.4567 14.1193 39.8089 14.1193Z" fill="#D9D9D9"/>
</svg>
