<svg width="24" height="19" viewBox="0 0 24 19" fill="none" xmlns="http://www.w3.org/2000/svg">
<rect width="24" height="19" rx="9.5" fill="#333333"/>
<path d="M11.8949 14.1193C11.2926 14.1193 10.7557 14.0085 10.2841 13.7869C9.81534 13.5653 9.44318 13.2599 9.16761 12.8707C8.89205 12.4815 8.74858 12.0355 8.73722 11.5327H10.527C10.5469 11.8707 10.6889 12.1449 10.9531 12.3551C11.2173 12.5653 11.5312 12.6705 11.8949 12.6705C12.1847 12.6705 12.4403 12.6065 12.6619 12.4787C12.8864 12.348 13.0611 12.1676 13.1861 11.9375C13.3139 11.7045 13.3778 11.4375 13.3778 11.1364C13.3778 10.8295 13.3125 10.5597 13.1818 10.3267C13.054 10.0937 12.8764 9.91193 12.6491 9.78125C12.4219 9.65057 12.1619 9.58381 11.8693 9.58097C11.6136 9.58097 11.3651 9.63352 11.1236 9.73864C10.8849 9.84375 10.6989 9.98722 10.5653 10.169L8.92472 9.875L9.33807 5.27273H14.6733V6.78125H10.8594L10.6335 8.96733H10.6847C10.8381 8.75142 11.0696 8.57244 11.3793 8.4304C11.6889 8.28835 12.0355 8.21733 12.419 8.21733C12.9446 8.21733 13.4134 8.34091 13.8253 8.58807C14.2372 8.83523 14.5625 9.17472 14.8011 9.60653C15.0398 10.0355 15.1577 10.5298 15.1548 11.0895C15.1577 11.6776 15.0213 12.2003 14.7457 12.6577C14.473 13.1122 14.0909 13.4702 13.5994 13.7315C13.1108 13.9901 12.5426 14.1193 11.8949 14.1193Z" fill="#D9D9D9"/>
</svg>
